<svg xmlns="http://www.w3.org/2000/svg" width="82.03" height="23.991" viewBox="0 0 82.03 23.991"><path d="M-44-18.645h8.115L-38.572-7.023h2.913l-.978,4.18h-8.115l2.685-11.622H-44.98Zm3.462-5.094a2.736,2.736,0,0,1,.206-1.06,2.633,2.633,0,0,1,.572-.862,2.736,2.736,0,0,1,.862-.579,2.689,2.689,0,0,1,1.071-.213,2.56,2.56,0,0,1,1.037.213,2.761,2.761,0,0,1,.854.579,2.736,2.736,0,0,1,.579.862,2.651,2.651,0,0,1,.213,1.06,2.651,2.651,0,0,1-.213,1.06,2.736,2.736,0,0,1-.579.862,2.761,2.761,0,0,1-.854.579,2.56,2.56,0,0,1-1.037.213,2.689,2.689,0,0,1-1.071-.213,2.735,2.735,0,0,1-.862-.579,2.633,2.633,0,0,1-.572-.862,2.735,2.735,0,0,1-.205-1.06Zm6.8,14.246a9.686,9.686,0,0,1,.785-3.958,9.322,9.322,0,0,1,2.113-3.035,9.435,9.435,0,0,1,3.074-1.945,9.979,9.979,0,0,1,3.683-.686,7.14,7.14,0,0,1,2.8.549,7.08,7.08,0,0,1,2.265,1.5,6.972,6.972,0,0,1,1.512,2.242,6.989,6.989,0,0,1,.549,2.767,9.792,9.792,0,0,1-.74,3.844,9.354,9.354,0,0,1-2.029,3.035,9.184,9.184,0,0,1-3.051,2,10,10,0,0,1-3.806.714,7.169,7.169,0,0,1-2.844-.557A7.185,7.185,0,0,1-31.7-4.529,6.892,6.892,0,0,1-33.2-6.76a6.941,6.941,0,0,1-.537-2.734Zm4.972-.564a3.638,3.638,0,0,0,.2,1.228,2.893,2.893,0,0,0,.557.961,2.478,2.478,0,0,0,.854.625,2.609,2.609,0,0,0,1.071.221,3.654,3.654,0,0,0,1.54-.344,4.436,4.436,0,0,0,1.339-.946A4.629,4.629,0,0,0-22.27-9.73a4.413,4.413,0,0,0,.351-1.762,3.737,3.737,0,0,0-.221-1.349,2.83,2.83,0,0,0-.587-.953,2.363,2.363,0,0,0-.85-.572,2.825,2.825,0,0,0-1.037-.191,3.74,3.74,0,0,0-1.624.357,4.2,4.2,0,0,0-1.312.968,4.685,4.685,0,0,0-.884,1.428,4.641,4.641,0,0,0-.331,1.747Zm14.658-8.588h8.025l-.244,1.3v-.015a9.113,9.113,0,0,1,1.418-.884A7.875,7.875,0,0,1-3.4-18.82a6.232,6.232,0,0,1,1.6-.207A5.647,5.647,0,0,1,.52-18.58a3.843,3.843,0,0,1,1.586,1.266,4.384,4.384,0,0,1,.755,2.021,7.582,7.582,0,0,1-.191,2.707l-1.3,5.564H4.256l-.961,4.18H-4.8l1.964-8.5a3.117,3.117,0,0,0,.084-1.06A2.178,2.178,0,0,0-3-13.223a1.324,1.324,0,0,0-.519-.527,1.523,1.523,0,0,0-.755-.183,4.383,4.383,0,0,0-1.922.6,8.332,8.332,0,0,0-1.235.793l-2.238,9.7h-5.355l2.685-11.622h-2.745Zm21.675,0h8.115L13-7.023h2.913l-.976,4.18H6.818L9.5-14.466H6.589Zm3.462-5.094a2.736,2.736,0,0,1,.2-1.059,2.633,2.633,0,0,1,.572-.862,2.736,2.736,0,0,1,.862-.579,2.689,2.689,0,0,1,1.071-.213,2.56,2.56,0,0,1,1.037.213,2.76,2.76,0,0,1,.854.579,2.736,2.736,0,0,1,.579.862,2.651,2.651,0,0,1,.213,1.06,2.651,2.651,0,0,1-.213,1.06,2.736,2.736,0,0,1-.579.862,2.761,2.761,0,0,1-.854.579,2.56,2.56,0,0,1-1.037.213,2.689,2.689,0,0,1-1.071-.213,2.736,2.736,0,0,1-.862-.579,2.633,2.633,0,0,1-.572-.863,2.736,2.736,0,0,1-.2-1.06ZM28.264-4.048a4.588,4.588,0,0,1-1.495,1.007,5.688,5.688,0,0,1-2.334.446,6.909,6.909,0,0,1-2.425-.446A6.144,6.144,0,0,1,19.9-4.361,6.666,6.666,0,0,1,18.4-6.534a7.345,7.345,0,0,1-.572-2.99,9.5,9.5,0,0,1,.381-2.738A9.352,9.352,0,0,1,19.263-14.6a8.872,8.872,0,0,1,1.594-1.884,9.728,9.728,0,0,1,2.014-1.388,10.365,10.365,0,0,1,2.3-.862,10.3,10.3,0,0,1,2.463-.3,6.71,6.71,0,0,1,1.2.089,11.437,11.437,0,0,1,1.136.275,5.133,5.133,0,0,1,1.495.793l.183-.778h5.186l-2.7,11.625h2.913l-.976,4.18H27.989Zm.564-4.469.671-.839.762-3.294a3.408,3.408,0,0,0-.473-.678,2.754,2.754,0,0,0-.725-.572,3.862,3.862,0,0,0-.946-.374,4.171,4.171,0,0,0-1.03-.129,3.868,3.868,0,0,0-1.571.328,4.226,4.226,0,0,0-1.3.884,4.284,4.284,0,0,0-.893,1.319,4.007,4.007,0,0,0-.336,1.632,3.313,3.313,0,0,0,.228,1.282,2.57,2.57,0,0,0,.625.915,2.62,2.62,0,0,0,.915.549,3.322,3.322,0,0,0,1.114.183,4.3,4.3,0,0,0,1.03-.129,4.2,4.2,0,0,0,1.017-.4A4.268,4.268,0,0,0,28.828-8.517Z" transform="translate(44.98 26.455)" fill="#0c2134"/></svg>