<svg xmlns="http://www.w3.org/2000/svg" width="98.685" height="29.345" viewBox="0 0 98.685 29.345"><g transform="translate(0 0)"><path d="M1.333-9.075a7.2,7.2,0,0,1,.591-2.944,6.671,6.671,0,0,1,1.658-2.294A7.532,7.532,0,0,1,6.144-15.8a9.9,9.9,0,0,1,3.312-.527,9.915,9.915,0,0,1,3.307.527,7.525,7.525,0,0,1,2.57,1.486,6.671,6.671,0,0,1,1.654,2.294,7.2,7.2,0,0,1,.591,2.944,7.318,7.318,0,0,1-.591,2.967,6.776,6.776,0,0,1-1.658,2.322,7.579,7.579,0,0,1-2.57,1.513,9.688,9.688,0,0,1-3.3.541,9.678,9.678,0,0,1-3.312-.541A7.587,7.587,0,0,1,3.582-3.787,6.776,6.776,0,0,1,1.924-6.109a7.318,7.318,0,0,1-.591-2.967Zm2.88,0a4.785,4.785,0,0,0,.4,1.981,4.363,4.363,0,0,0,1.1,1.506,4.956,4.956,0,0,0,1.662.956A6.26,6.26,0,0,0,9.456-4.3a6.26,6.26,0,0,0,2.085-.336A4.905,4.905,0,0,0,13.2-5.59,4.443,4.443,0,0,0,14.3-7.1a4.742,4.742,0,0,0,.4-1.98,4.68,4.68,0,0,0-.4-1.972,4.28,4.28,0,0,0-1.1-1.476,4.832,4.832,0,0,0-1.658-.922,6.586,6.586,0,0,0-2.085-.318,6.586,6.586,0,0,0-2.085.318,4.881,4.881,0,0,0-1.663.924,4.2,4.2,0,0,0-1.1,1.476,4.726,4.726,0,0,0-.4,1.972Zm16.23-3.58h2.689v1.544a11.725,11.725,0,0,1,1.881-1.145,10.585,10.585,0,0,1,1.972-.736l.788,2.463a8.533,8.533,0,0,0-2.73.695,4.9,4.9,0,0,0-1.913,1.521v6.38H20.443Zm10.748-1.463a2.165,2.165,0,0,1-.722-.113,1.7,1.7,0,0,1-.549-.309,1.367,1.367,0,0,1-.35-.455,1.268,1.268,0,0,1-.122-.549,1.288,1.288,0,0,1,.122-.559,1.321,1.321,0,0,1,.35-.45,1.747,1.747,0,0,1,.549-.3,2.165,2.165,0,0,1,.722-.113,2.194,2.194,0,0,1,.731.113,1.747,1.747,0,0,1,.549.3,1.321,1.321,0,0,1,.35.45,1.288,1.288,0,0,1,.122.559,1.268,1.268,0,0,1-.122.549,1.367,1.367,0,0,1-.35.455,1.7,1.7,0,0,1-.549.309,2.194,2.194,0,0,1-.734.114Zm-1.347,1.463h2.689V-1.934H29.844Zm5.485,5.361A5.075,5.075,0,0,1,35.8-9.456a5.237,5.237,0,0,1,1.335-1.762,6.435,6.435,0,0,1,2.1-1.19A8.248,8.248,0,0,1,42-12.845a8.248,8.248,0,0,1,2.766.436,6.435,6.435,0,0,1,2.1,1.19A5.237,5.237,0,0,1,48.2-9.456a5.075,5.075,0,0,1,.468,2.162A5.075,5.075,0,0,1,48.2-5.132a5.237,5.237,0,0,1-1.336,1.763,6.435,6.435,0,0,1-2.1,1.19A8.248,8.248,0,0,1,42-1.743a8.248,8.248,0,0,1-2.766-.436,6.435,6.435,0,0,1-2.1-1.19A5.237,5.237,0,0,1,35.8-5.131a5.075,5.075,0,0,1-.471-2.163Zm2.826,0a2.951,2.951,0,0,0,.259,1.222,2.994,2.994,0,0,0,.754,1.017,3.687,3.687,0,0,0,1.209.7A4.733,4.733,0,0,0,42-4.1a4.733,4.733,0,0,0,1.622-.259,3.687,3.687,0,0,0,1.209-.7,2.994,2.994,0,0,0,.754-1.017,2.951,2.951,0,0,0,.259-1.222,2.982,2.982,0,0,0-.259-1.226,2.982,2.982,0,0,0-.754-1.023,3.687,3.687,0,0,0-1.209-.7A4.733,4.733,0,0,0,42-10.5a4.733,4.733,0,0,0-1.622.259,3.687,3.687,0,0,0-1.209.7,2.982,2.982,0,0,0-.754,1.023,2.982,2.982,0,0,0-.256,1.226Zm13.229-5.361h2.689v.908a8.262,8.262,0,0,1,2.049-.854,7.834,7.834,0,0,1,1.912-.245,6.949,6.949,0,0,1,2.271.359,5.014,5.014,0,0,1,1.808,1.063,4.89,4.89,0,0,1,1.2,1.772A6.449,6.449,0,0,1,63.743-7.2v5.27h-2.68V-6.767a4.641,4.641,0,0,0-.25-1.576,3.19,3.19,0,0,0-.718-1.172,3.076,3.076,0,0,0-1.136-.727,4.239,4.239,0,0,0-1.495-.25,4.6,4.6,0,0,0-.895.089,5.538,5.538,0,0,0-.9.259,5.139,5.139,0,0,0-.85.418,4.478,4.478,0,0,0-.745.568v7.225H51.386Z" transform="translate(34.791 23.461)" fill="#0c2134" stroke="#0c2134" stroke-width="0.3"/><path d="M14.674,29.346A14.672,14.672,0,1,1,29.347,14.673,14.672,14.672,0,0,1,14.674,29.346Zm0-2.935a11.74,11.74,0,1,0-11.74-11.74A11.74,11.74,0,0,0,14.674,26.411Zm2.935-14.672H13.2a1.467,1.467,0,1,1,0-2.935h5.869a1.467,1.467,0,0,1,1.467,1.467v5.869a1.467,1.467,0,0,1-2.935,0ZM13.2,16.14H8.8a1.467,1.467,0,0,1,0-2.935h5.869a1.467,1.467,0,0,1,1.467,1.467v5.869a1.467,1.467,0,0,1-2.935,0Z" transform="translate(-0.002 -0.001)" fill="#0c2134"/></g></svg>