<svg xmlns="http://www.w3.org/2000/svg" width="85.852" height="34.131" viewBox="0 0 85.852 34.131"><g transform="translate(0 0)"><path d="M3.048,0a3.2,3.2,0,0,1,2.488,1.1,4.214,4.214,0,0,1,.969,2.822,7.1,7.1,0,0,1-1.32,4.22,8.39,8.39,0,0,1-3.375,2.9l-.254-.49A6.223,6.223,0,0,0,3.079,8.913,6.783,6.783,0,0,0,4,6.414L3.127,6.2A4.394,4.394,0,0,1,.842,4.98,3.022,3.022,0,0,1,0,2.884,2.645,2.645,0,0,1,.875.789,3.065,3.065,0,0,1,3.048,0Z" transform="translate(19.572 0) rotate(69.028)" fill="#0c2134"/><path d="M6.609-2.844A9.943,9.943,0,0,1,3.7-3.239,13.282,13.282,0,0,1,1.32-4.215l.033-4.076h.332L2.8-6.236A6.127,6.127,0,0,0,4.411-4.2a3.574,3.574,0,0,0,2.231.671A4.14,4.14,0,0,0,9.2-4.263a2.344,2.344,0,0,0,.976-1.97A2.554,2.554,0,0,0,9.485-8.09a6.227,6.227,0,0,0-2.575-1.3L5.518-9.833a6.778,6.778,0,0,1-3.173-1.918,4.625,4.625,0,0,1-1.16-3.185A5.01,5.01,0,0,1,2.9-18.774,7.03,7.03,0,0,1,7.83-20.349a9.792,9.792,0,0,1,2.429.291,9.329,9.329,0,0,1,2.2.874l-.192,3.7h-.332l-1.16-2.124A5.094,5.094,0,0,0,9.533-19.2,3.02,3.02,0,0,0,7.7-19.661a3.789,3.789,0,0,0-2.115.651,2.084,2.084,0,0,0-.993,1.85,2.259,2.259,0,0,0,.845,1.846,8.479,8.479,0,0,0,2.493,1.267l1.487.446a6.756,6.756,0,0,1,3.407,2.072A5.011,5.011,0,0,1,13.846-8.36a4.858,4.858,0,0,1-1.9,4.008A8.389,8.389,0,0,1,6.609-2.844Zm8.657-.51V-3.7l.463-.137a1.534,1.534,0,0,0,.909-.617,2.109,2.109,0,0,0,.249-1.1V-16.269a1.911,1.911,0,0,0-.249-1.079,1.391,1.391,0,0,0-.909-.5l-.463-.1v-.345l6.053-2.02.332.345-.1,4.865v9.587a2.109,2.109,0,0,0,.25,1.1,1.517,1.517,0,0,0,.876.617l.332.1v.346Zm16.4-5.931a8.63,8.63,0,0,1-3.872-.785v1.16a1.16,1.16,0,0,0,1.029,1.271l6.215,1.2a16.244,16.244,0,0,1,2.81.8,4.935,4.935,0,0,1,2.016,1.4,3.749,3.749,0,0,1,.761,2.485,5.082,5.082,0,0,1-1.058,3.1,7.332,7.332,0,0,1-3.124,2.3,13.238,13.238,0,0,1-5.141.874,12.623,12.623,0,0,1-4.195-.565,4.535,4.535,0,0,1-2.2-1.454A3.16,3.16,0,0,1,24.267.618a4.546,4.546,0,0,1,.805-2.484,6.541,6.541,0,0,1,2-2,3.241,3.241,0,0,1-1.487-1.061,2.379,2.379,0,0,1-.463-1.4,2.522,2.522,0,0,1,.347-1.284,9.728,9.728,0,0,1,.843-1.217L27.4-10.276a4.886,4.886,0,0,1-2.41-4.522,5.156,5.156,0,0,1,1.7-4.008A7.234,7.234,0,0,1,31.7-20.348a9.639,9.639,0,0,1,2.959.411,5.634,5.634,0,0,1,2.1,1.165,8.817,8.817,0,0,0,2-.565,5.96,5.96,0,0,0,1.7-1.079l.463.345v1.747h-3.74a5.189,5.189,0,0,1,1.19,3.53,5.13,5.13,0,0,1-1.7,3.95,7.179,7.179,0,0,1-5.013,1.561Zm-.034-.689a2.046,2.046,0,0,0,1.934-1.13,8.453,8.453,0,0,0,.611-3.768,8.1,8.1,0,0,0-.611-3.717A2.008,2.008,0,0,0,31.7-19.668a2.008,2.008,0,0,0-1.851,1.115,8.142,8.142,0,0,0-.625,3.749,8.632,8.632,0,0,0,.582,3.734,1.933,1.933,0,0,0,1.828,1.1ZM26.705-.481a3.785,3.785,0,0,0,1.207,3.049A5.824,5.824,0,0,0,31.734,3.6a7.5,7.5,0,0,0,4.131-.923A2.952,2.952,0,0,0,37.256.067a1.932,1.932,0,0,0-.678-1.541,5.043,5.043,0,0,0-2.3-.893L28.3-3.527l-.529-.137a6.53,6.53,0,0,0-.76,1.558,5.065,5.065,0,0,0-.3,1.623ZM42.013-3.355V-3.7l.463-.137a1.389,1.389,0,0,0,.876-.582,2.334,2.334,0,0,0,.281-1.1V-16.238a2.1,2.1,0,0,0-.227-1.113,1.316,1.316,0,0,0-.893-.5l-.5-.137v-.345l5.65-1.988.332.345.268,2.329a10.759,10.759,0,0,1,2.493-1.918,5.9,5.9,0,0,1,2.92-.789,4.373,4.373,0,0,1,2.545.668,4.082,4.082,0,0,1,1.455,2.072,10.681,10.681,0,0,1,2.794-2,6.633,6.633,0,0,1,2.926-.736,4.564,4.564,0,0,1,3.455,1.165,5.177,5.177,0,0,1,1.106,3.666V-5.482A1.563,1.563,0,0,0,69.151-3.8l.367.105v.341H61.882V-3.7l.332-.1a1.517,1.517,0,0,0,.876-.617,2.11,2.11,0,0,0,.249-1.1V-16a2.93,2.93,0,0,0-.5-1.97,2.08,2.08,0,0,0-1.587-.536,3.775,3.775,0,0,0-1.669.394,7.765,7.765,0,0,0-1.7,1.189,5.63,5.63,0,0,1,.215,1.2q.05.651.05,1.37v8.868a1.607,1.607,0,0,0,1.19,1.678l.3.11v.342H51.964V-3.7l.463-.137a1.553,1.553,0,0,0,.876-.6,2.016,2.016,0,0,0,.249-1.079V-15.965a3.1,3.1,0,0,0-.479-1.953,2.01,2.01,0,0,0-1.636-.582,3.28,3.28,0,0,0-1.517.394,7.586,7.586,0,0,0-1.587,1.148V-5.482A1.559,1.559,0,0,0,49.483-3.8l.3.105v.341Zm33.421.517a4.749,4.749,0,0,1-3.223-1.131,4.074,4.074,0,0,1-1.3-3.26A3.882,3.882,0,0,1,72.5-10.192a11.1,11.1,0,0,1,4.992-2.038q.529-.1,1.19-.223t1.389-.258v-2.706a7.021,7.021,0,0,0-.545-3.272,1.828,1.828,0,0,0-1.706-.939,1.58,1.58,0,0,0-1.257.536,3.351,3.351,0,0,0-.6,1.833l-.066.378a3.359,3.359,0,0,1-.693,2.158,2.023,2.023,0,0,1-1.554.689,1.955,1.955,0,0,1-1.422-.549,1.964,1.964,0,0,1-.561-1.474,3.245,3.245,0,0,1,.942-2.363A5.83,5.83,0,0,1,75.1-19.866a11.381,11.381,0,0,1,3.372-.479,6.426,6.426,0,0,1,4.546,1.491q1.607,1.491,1.607,4.847v7.574q0,1.541,1.389,1.541h.727l.3.274a4.945,4.945,0,0,1-1.369,1.264,4.105,4.105,0,0,1-2.1.446,3.481,3.481,0,0,1-2.3-.7,3.3,3.3,0,0,1-1.108-1.867,13.963,13.963,0,0,1-2.03,1.866,4.412,4.412,0,0,1-2.694.768ZM77.45-4.927a2.488,2.488,0,0,0,1.24-.326,8.861,8.861,0,0,0,1.372-1.011v-5.755l-.665.137q-.332.069-.76.137a5.021,5.021,0,0,0-2.429,1.387A3.7,3.7,0,0,0,75.3-7.747a3.078,3.078,0,0,0,.625,2.107,1.963,1.963,0,0,0,1.517.7Z" transform="translate(-1.183 29.603)" fill="#0c2134"/></g></svg>