<svg xmlns="http://www.w3.org/2000/svg" width="89.92" height="43.672" viewBox="0 0 89.92 43.672"><g transform="translate(0)"><path d="M-27.965-1.838q-1.227,0-1.492-.585l-5.648-12.788a.546.546,0,0,1-.042-.179q0-.714,1.517-.714,1.16,0,1.408.572L-27.605-5.09l4.6-10.6q.178-.419,1.071-.419,1.116,0,1.116.516a.838.838,0,0,1-.028.139L-26.488-2.424q-.252.585-1.477.585ZM-18-17.345a1.264,1.264,0,0,1-1.074-.353,1.264,1.264,0,0,1-.363-1.07,1.27,1.27,0,0,1,.361-1.075A1.27,1.27,0,0,1-18-20.2a1.264,1.264,0,0,1,1.07.363,1.264,1.264,0,0,1,.353,1.074A1.258,1.258,0,0,1-16.93-17.7,1.258,1.258,0,0,1-18-17.345Zm0,15.507q-1.423,0-1.423-.781V-15.337q0-.781,1.423-.781t1.408.781V-2.619Q-16.587-1.838-18-1.838Zm5.285,0q-1.421,0-1.421-.781V-15.337q0-.781,1.423-.781t1.408.781v.851a3.878,3.878,0,0,1,3.375-1.632,5.243,5.243,0,0,1,2.915.8.634.634,0,0,1,.349.53.826.826,0,0,1-.446.684,1.507,1.507,0,0,1-.865.268,1.255,1.255,0,0,1-.767-.237A2.309,2.309,0,0,0-8.2-14.595a2.617,2.617,0,0,0-2.446,1.7,8.133,8.133,0,0,0-.655,3.57v6.708q0,.781-1.4.781ZM9.923-2.731A5.236,5.236,0,0,1,7.684,1.983,9.136,9.136,0,0,1,2.532,3.462,13.764,13.764,0,0,1-1.19,2.889,5.248,5.248,0,0,1-4.2.9.484.484,0,0,1-4.3.617q0-.767,1.423-.767A1.509,1.509,0,0,1-1.554.339,3.176,3.176,0,0,0,.253,1.551,8.1,8.1,0,0,0,2.491,1.9q4.616,0,4.616-4.629v-.725a5.718,5.718,0,0,1-4.3,1.6q-7.125,0-7.125-7.14t7.14-7.14A5.855,5.855,0,0,1,7.136-14.5v-.851q0-.781,1.408-.781t1.395.781ZM2.811-3.414A3.507,3.507,0,0,0,6.074-5.269a7.443,7.443,0,0,0,1.06-3.724,7.48,7.48,0,0,0-1.053-3.724,3.491,3.491,0,0,0-3.255-1.855,3.5,3.5,0,0,0-3.25,1.855A7.443,7.443,0,0,0-1.484-8.993,7.48,7.48,0,0,0-.431-5.269,3.481,3.481,0,0,0,2.811-3.414ZM19.63-1.838A7.848,7.848,0,0,1,14.2-3.779a6.63,6.63,0,0,1-2.169-5.2,6.63,6.63,0,0,1,2.169-5.2,7.848,7.848,0,0,1,5.432-1.939,7.848,7.848,0,0,1,5.432,1.939,6.63,6.63,0,0,1,2.169,5.2,6.63,6.63,0,0,1-2.169,5.2A7.848,7.848,0,0,1,19.63-1.838Zm0-1.548A4.046,4.046,0,0,0,23.176-5.15,6.6,6.6,0,0,0,24.4-8.978a6.584,6.584,0,0,0-1.22-3.838,4.05,4.05,0,0,0-3.55-1.757,4.055,4.055,0,0,0-3.542,1.757,6.558,6.558,0,0,0-1.227,3.838A6.569,6.569,0,0,0,16.087-5.15,4.049,4.049,0,0,0,19.63-3.386Z" transform="translate(62.684 28.948)" fill="#0c2134"/><path d="M23.159,44.707a.864.864,0,0,1-.886-.784L20.354,28.249,14.1,33.141a.893.893,0,0,1-.55.2.933.933,0,0,1-.814-.527.851.851,0,0,1,.11-.926l4.633-5.926L1.819,24.045a.893.893,0,0,1,0-1.772l15.927-1.95-4.82-6.148a.851.851,0,0,1-.112-.926.933.933,0,0,1,.815-.527.892.892,0,0,1,.55.2l6.148,4.824L22.273,1.819a.893.893,0,0,1,1.772,0l1.071,8.719a1,1,0,0,0-.829-.268c-.63,0-.951.15-.951.446a.352.352,0,0,0,.026.113l2.475,5.6.129,1.048L26.2,17.3l2.755,8.583-.552.068.971,1.238L31.045,32.4l-5.1-4-1.9,15.523a.864.864,0,0,1-.889.777Z" transform="translate(-1.035 -1.035)" fill="#0c2134"/></g></svg>