<svg xmlns="http://www.w3.org/2000/svg" width="83.292" height="17.949" viewBox="0 0 83.292 17.949"><path d="M1263.286-12334.39a6.146,6.146,0,0,1-4.209-1.506,5.439,5.439,0,0,1-1.7-4.276v-11.395a.5.5,0,0,1,.132-.41.484.484,0,0,1,.394-.14h2.775a.466.466,0,0,1,.394.137.5.5,0,0,1,.133.41v10.265a3.87,3.87,0,0,0,.81,2.566,2.81,2.81,0,0,0,2.261.959,3.117,3.117,0,0,0,2.379-.959,3.638,3.638,0,0,0,.892-2.566v-10.265a.5.5,0,0,1,.133-.41.477.477,0,0,1,.395-.141h2.742a.477.477,0,0,1,.4.137.5.5,0,0,1,.133.411v16.39a.5.5,0,0,1-.135.405.453.453,0,0,1-.394.139l-2.742.006a.48.48,0,0,1-.394-.138.5.5,0,0,1-.132-.412v-.888a.185.185,0,0,0-.082-.179.083.083,0,0,0-.034-.008c-.042,0-.079.04-.115.112a4.744,4.744,0,0,1-4.03,1.745Zm18.457-.033a9.679,9.679,0,0,1-3.649-.635,5.664,5.664,0,0,1-2.427-1.744,4,4,0,0,1-.858-2.479v-.174a.5.5,0,0,1,.135-.408.453.453,0,0,1,.394-.136h2.642c.357,0,.529.079.529.238v.238a1.819,1.819,0,0,0,.907,1.489,3.937,3.937,0,0,0,2.295.633,3.742,3.742,0,0,0,2.142-.572,1.674,1.674,0,0,0,.824-1.418,1.292,1.292,0,0,0-.676-1.183,10.748,10.748,0,0,0-2.194-.834l-1.258-.411a18.022,18.022,0,0,1-2.84-1.1,5.67,5.67,0,0,1-1.948-1.589,4.09,4.09,0,0,1-.793-2.589,4.627,4.627,0,0,1,1.8-3.816,7.51,7.51,0,0,1,4.771-1.418,8.735,8.735,0,0,1,3.537.667,5.565,5.565,0,0,1,2.359,1.849,4.526,4.526,0,0,1,.841,2.687.362.362,0,0,1-.149.292.587.587,0,0,1-.38.12h-2.541c-.352,0-.529-.071-.529-.205v-.207a1.784,1.784,0,0,0-.842-1.486,3.883,3.883,0,0,0-2.295-.6,3.979,3.979,0,0,0-2.1.494,1.555,1.555,0,0,0-.8,1.386,1.372,1.372,0,0,0,.759,1.252,13.193,13.193,0,0,0,2.544.938l.759.2a25.128,25.128,0,0,1,2.973,1.094,5.585,5.585,0,0,1,2.012,1.575,4.1,4.1,0,0,1,.828,2.639,4.522,4.522,0,0,1-1.849,3.813,8.051,8.051,0,0,1-4.921,1.39Zm-63.429,0h-.3v-2.98c.1,0,.185.01.268.01a3.767,3.767,0,0,0,2.142-.57,1.682,1.682,0,0,0,.824-1.424,1.285,1.285,0,0,0-.674-1.179,10.833,10.833,0,0,0-2.2-.838l-1.25-.412a18.351,18.351,0,0,1-2.841-1.093,5.762,5.762,0,0,1-1.946-1.59,4.08,4.08,0,0,1-.792-2.589,4.615,4.615,0,0,1,1.8-3.812,7.487,7.487,0,0,1,4.772-1.424,8.8,8.8,0,0,1,3.534.667,5.629,5.629,0,0,1,2.358,1.85,4.532,4.532,0,0,1,.842,2.689.363.363,0,0,1-.149.288.6.6,0,0,1-.38.12h-2.541c-.352,0-.529-.068-.529-.2v-.207a1.783,1.783,0,0,0-.841-1.487,3.894,3.894,0,0,0-2.3-.6,3.98,3.98,0,0,0-2.1.494,1.554,1.554,0,0,0-.809,1.383,1.365,1.365,0,0,0,.761,1.251,12.882,12.882,0,0,0,2.541.941l.761.2a25.875,25.875,0,0,1,2.97,1.1,5.512,5.512,0,0,1,2.014,1.572,4.1,4.1,0,0,1,.828,2.64,4.518,4.518,0,0,1-1.851,3.813,8.014,8.014,0,0,1-4.912,1.39Zm34.408-.2h-2.776a.482.482,0,0,1-.395-.138.5.5,0,0,1-.132-.411v-16.391a.5.5,0,0,1,.133-.409.48.48,0,0,1,.394-.141h2.776a.466.466,0,0,1,.394.138.5.5,0,0,1,.133.41v16.389a.5.5,0,0,1-.13.413.457.457,0,0,1-.4.135Zm-12.68,0h-2.775a.484.484,0,0,1-.4-.14.5.5,0,0,1-.132-.41v-16.39a.5.5,0,0,1,.133-.409.478.478,0,0,1,.394-.143l2.775,0a.465.465,0,0,1,.394.137.5.5,0,0,1,.133.41v1.334c0,.089.021.146.066.172a.052.052,0,0,0,.027.008c.037,0,.073-.037.107-.109a4.4,4.4,0,0,1,2.774-2.047h2.053a3.852,3.852,0,0,1,.756.268.568.568,0,0,1,.3.685l-.529,2.837c-.022.186-.083.3-.183.344a.374.374,0,0,1-.184.036.972.972,0,0,1-.26-.036,3.458,3.458,0,0,0-1.058-.134,4.6,4.6,0,0,0-.625.033,3.372,3.372,0,0,0-2.312,1,3.373,3.373,0,0,0-.924,2.448v9.551a.493.493,0,0,1-.129.412.456.456,0,0,1-.4.131Zm-8.156,0h-2.775a.48.48,0,0,1-.4-.138.5.5,0,0,1-.131-.412v-16.39a.5.5,0,0,1,.133-.411.479.479,0,0,1,.394-.138h2.775a.464.464,0,0,1,.394.137.5.5,0,0,1,.133.41v16.39a.5.5,0,0,1-.13.414.456.456,0,0,1-.4.135Z" transform="translate(-1211.537 12352.335)" fill="#0c2134"/><path d="M-49.383,27.6a2.142,2.142,0,0,1-1.592-.633,2.163,2.163,0,0,1-.625-1.582,2.053,2.053,0,0,1,.68-1.54,2.178,2.178,0,0,1,1.54-.648,2.256,2.256,0,0,1,1.582.648,2.035,2.035,0,0,1,.694,1.54,2.128,2.128,0,0,1-.66,1.565,2.213,2.213,0,0,1-1.623.647Z" transform="translate(130.395 -9.858)" fill="#0c2134"/></svg>