<svg height="130" viewBox="0 0 130.001 130" width="130.001" xmlns="http://www.w3.org/2000/svg"><path d="m914.293 422.027a64.881 64.881 0 0 1 64.881-64.882v64.882" fill="#ee2b7a" opacity=".5" transform="translate(-914.293 -292.027)"/><path d="m928.579 357.146a64.882 64.882 0 0 1 64.882 64.882h-64.882" fill="#ff9f1a" transform="translate(-863.461 -292.027)"/><path d="m914.293 422.027a64.881 64.881 0 0 1 64.881-64.882v64.882" fill="#ee2b7a" opacity=".5" transform="translate(-914.293 -292.027)"/><path d="m914.293 422.027a64.881 64.881 0 0 1 64.881-64.882v64.882" fill="#ee2b7a" opacity="0" transform="translate(-914.293 -357.146)"/><g fill="#ff9f1a"><path d="m928.579 357.146a64.882 64.882 0 0 1 64.882 64.882h-64.882" transform="translate(-863.46 -292.027)"/><path d="m928.579 357.146a64.882 64.882 0 0 1 64.882 64.882h-64.882" opacity="0" transform="translate(-863.46 -357.146)"/></g></svg>