<svg height="13.999" viewBox="0 0 13.963 13.999" width="13.963" xmlns="http://www.w3.org/2000/svg"><path d="m10983.1 868.956a5.192 5.192 0 0 1 -1.693-.348 3.6 3.6 0 0 1 -2.048-2.044 5.1 5.1 0 0 1 -.316-1.694c-.039-.745-.039-.985-.039-2.883s.006-2.138.047-2.883a4.835 4.835 0 0 1 .325-1.694 3.561 3.561 0 0 1 2.053-2.044 4.911 4.911 0 0 1 1.7-.328c.737-.039.985-.039 2.881-.039s2.13.008 2.883.047a4.919 4.919 0 0 1 1.7.328 3.608 3.608 0 0 1 2.053 2.05l-.061-.041a5.252 5.252 0 0 1 .334 1.724c.047.745.047.979.047 2.883s-.009 2.13-.039 2.883a5.079 5.079 0 0 1 -.317 1.7 3.607 3.607 0 0 1 -2.044 2.05 5.307 5.307 0 0 1 -1.7.328c-.745.047-.985.047-2.884.047s-2.136-.009-2.882-.042zm0-12.721a3.764 3.764 0 0 0 -1.288.248 2.345 2.345 0 0 0 -1.33 1.335 3.82 3.82 0 0 0 -.24 1.313c-.038.759-.038.949-.038 2.844s.008 2.1.047 2.839a3.881 3.881 0 0 0 .248 1.3 2.33 2.33 0 0 0 1.336 1.335 3.928 3.928 0 0 0 1.3.248c.753.047.946.047 2.842.047s2.1-.008 2.839-.039a4.182 4.182 0 0 0 1.3-.24 2.371 2.371 0 0 0 1.335-1.33 3.926 3.926 0 0 0 .248-1.3l-.068-.069h.017c.038-.75.038-.949.038-2.842s-.008-2.1-.038-2.836a4.038 4.038 0 0 0 -.243-1.288 2.316 2.316 0 0 0 -1.327-1.33 3.746 3.746 0 0 0 -1.3-.24c-.759-.039-.951-.039-2.842-.039s-2.099.009-2.836.044zm-.684 5.766a3.593 3.593 0 0 1 3.6-3.592l-.017-.008a3.595 3.595 0 1 1 -3.581 3.6zm1.258 0a2.331 2.331 0 1 0 2.331-2.334 2.34 2.34 0 0 0 -2.333 2.333zm5.233-3.736a.835.835 0 0 1 .836-.833v-.008a.839.839 0 1 1 -.836.841z" fill="#0c2134" transform="translate(-10979.001 -854.999)"/></svg>