<svg xmlns="http://www.w3.org/2000/svg" width="15.23" height="12.43" viewBox="0 0 15.23 12.43"><path d="M15.7,7.1c.008.132.008.264.008.4A8.908,8.908,0,0,1,1.994,15c.249.023.49.039.754.039a6.3,6.3,0,0,0,3.886-1.337A3.145,3.145,0,0,1,3.7,11.53a4.666,4.666,0,0,0,.591.047,3.248,3.248,0,0,0,.824-.109A3.135,3.135,0,0,1,2.609,8.39V8.347a3.282,3.282,0,0,0,1.414.4,3.13,3.13,0,0,1-1.4-2.606,3.06,3.06,0,0,1,.426-1.585A8.9,8.9,0,0,0,9.5,7.827a3.2,3.2,0,0,1-.078-.717,3.128,3.128,0,0,1,5.408-2.143,6.235,6.235,0,0,0,1.981-.762A3.136,3.136,0,0,1,15.429,5.93a6.328,6.328,0,0,0,1.795-.49,7.04,7.04,0,0,1-1.57,1.616Z" transform="translate(-1.994 -3.98)" fill="#0c2134"/></svg>