<svg height="18.438" viewBox="0 0 18.481 18.438" width="18.481" xmlns="http://www.w3.org/2000/svg"><path d="m15.411 20.419h.018a1.821 1.821 0 0 0 1.289-.543l2.5-2.505a.928.928 0 0 0 0-1.308l-3.688-3.685a.927.927 0 0 0 -1.308 0l-1.474 1.464a6.9 6.9 0 0 1 -2.763-1.474 6.859 6.859 0 0 1 -1.473-2.762l1.464-1.474a.927.927 0 0 0 0-1.308l-3.684-3.684a.955.955 0 0 0 -1.308 0l-2.511 2.488a1.831 1.831 0 0 0 -.543 1.317 14.061 14.061 0 0 0 3.959 9.45 14.085 14.085 0 0 0 9.45 3.951zm-9.732-15.298 2.376 2.379-1.2 1.188a.911.911 0 0 0 -.258.838 9.321 9.321 0 0 0 2.092 4.145 9.314 9.314 0 0 0 4.145 2.091.918.918 0 0 0 .838-.258l1.188-1.2 2.376 2.376-1.851 1.842a12.255 12.255 0 0 1 -8.176-3.422 12.244 12.244 0 0 1 -3.427-8.183l1.85-1.842z" fill="#ee2b7a" transform="translate(-1.929 -1.981)"/><g fill="#f368a0"><path d="m18.568 10.27h1.842a8.116 8.116 0 0 0 -8.3-8.289v1.842a6.237 6.237 0 0 1 6.457 6.438z" transform="translate(-1.929 -1.981)"/><path d="m13 7.842c1.934 0 2.763.82 2.763 2.763h1.837c0-2.975-1.635-4.605-4.6-4.605z" transform="translate(-2.802 -2.298)"/></g></svg>