<svg xmlns="http://www.w3.org/2000/svg" width="16" height="20" viewBox="0 0 16 20"><g transform="translate(-3.973 -1.966)"><path d="M19.9,8.586a.985.985,0,0,0-.2-.3l-6-6a.985.985,0,0,0-.3-.2.418.418,0,0,0-.1-.04,1.221,1.221,0,0,0-.26-.06.185.185,0,0,0-.07-.02h-7a1.993,1.993,0,0,0-2,2v16a2,2,0,0,0,2,2h12a2.006,2.006,0,0,0,2-2v-11c0-.03-.02-.04-.02-.07a1.1,1.1,0,0,0-.06-.26.3.3,0,0,0-.04-.1ZM16.586,8H14V5.4l2.58,2.58ZM6,20V4h6V9a1,1,0,0,0,1,1h5V20H5.98Z" fill="#f368a0"/><path d="M8,12h8v2H8Zm0,4h8v2H8ZM8,8h2v2H8Z" fill="#ee2b7a"/></g></svg>