<svg height="18.438" viewBox="0 0 18.647 18.438" width="18.647" xmlns="http://www.w3.org/2000/svg"><path d="m4.8 17.194v3.506l1.409-.849 4.442-2.668h4.4a1.871 1.871 0 0 0 1.866-1.866v-7.461a1.865 1.865 0 0 0 -1.865-1.866h-11.194a1.859 1.859 0 0 0 -1.866 1.866v7.463a1.865 1.865 0 0 0 1.866 1.866h.933zm-.935-9.329h11.195v7.463h-4.926l-3.48 2.08v-2.09h-2.8v-7.462z" fill="#ee2b7a" transform="translate(-1.992 -2.264)"/><path d="m19.06 2h-11.204a1.859 1.859 0 0 0 -1.866 1.866h11.185a1.865 1.865 0 0 1 1.866 1.866v7.459a1.871 1.871 0 0 0 1.866-1.866v-7.463a1.865 1.865 0 0 0 -1.866-1.862z" fill="#f368a0" transform="translate(-2.26 -1.996)"/></svg>