<svg xmlns="http://www.w3.org/2000/svg" width="17.049" height="17.09" viewBox="0 0 17.049 17.09"><g transform="translate(-3.439 -3.41)"><path d="M8.46,11.293a3.056,3.056,0,0,1,4.24,0l.7.7,1.41-1.42-.71-.71a5,5,0,0,0-7.075-.01L4.9,11.97A5,5,0,0,0,8.435,20.5a4.951,4.951,0,0,0,3.53-1.47l.7-.71-1.42-1.42-.71.7a3,3,0,1,1-4.243-4.243l2.12-2.13Z" fill="#17ca6a"/><path d="M12,4.929l-.71.7,1.41,1.41.7-.71a3,3,0,0,1,4.243,4.243l-2.122,2.12a3.088,3.088,0,0,1-4.25,0l-.71-.71-1.42,1.41.7.7a5,5,0,0,0,7.07-.01l2.122-2.13a5.006,5.006,0,1,0-7.08-7.08Z" fill="#9ce6c5"/></g></svg>