<svg height="22.228" viewBox="0 0 115.349 22.228" width="115.349" xmlns="http://www.w3.org/2000/svg"><path d="m25.154 2.7a4.772 4.772 0 0 1 -3.8-1.618 6.918 6.918 0 0 1 -1.406-4.672 15.574 15.574 0 0 1 .761-4.71 9.777 9.777 0 0 1 2.359-4.007 5.392 5.392 0 0 1 3.992-1.618 5.845 5.845 0 0 1 2.691.559 4.8 4.8 0 0 1 1.814 1.648h.181l.937-1.845h3.508l-.7 3.871-.484 2.631q-.937 5.2-.937 5.564a.739.739 0 0 0 .257.6.944.944 0 0 0 .62.212h.877l-.514 2.9a5.787 5.787 0 0 1 -2.48.484 3.136 3.136 0 0 1 -2.071-.62 2.174 2.174 0 0 1 -.706-1.824h-.181a5.8 5.8 0 0 1 -2.087 1.815 5.692 5.692 0 0 1 -2.631.63zm1.6-3.6a2.938 2.938 0 0 0 2.346-1.082 6.637 6.637 0 0 0 1.331-2.6 10.831 10.831 0 0 0 .408-2.818q0-3.054-2.54-3.054a2.973 2.973 0 0 0 -2.419 1.1 6.409 6.409 0 0 0 -1.27 2.624 12.435 12.435 0 0 0 -.363 2.9q0 2.936 2.51 2.936zm14.79-18.621h4.143l-3.841 21.863h-4.146zm8.406 0h4.143l-3.84 21.863h-4.143zm8.316 0h4.143l-.7 3.9h-4.138zm-.937 5.957h4.143l-2.813 15.906h-4.143zm12.371 16.264a9.652 9.652 0 0 1 -5.11-1.134 3.494 3.494 0 0 1 -1.814-3.1 3.077 3.077 0 0 1 .212-1.179h4.022a1.139 1.139 0 0 0 -.091.454 1.4 1.4 0 0 0 .832 1.331 4.539 4.539 0 0 0 2.066.428 6.309 6.309 0 0 0 2.3-.378 1.3 1.3 0 0 0 .968-1.255 1.211 1.211 0 0 0 -.8-1.134 17.3 17.3 0 0 0 -2.555-.862 23.8 23.8 0 0 1 -2.782-.847 5 5 0 0 1 -1.875-1.27 3.115 3.115 0 0 1 -.786-2.207 4.632 4.632 0 0 1 2.056-4.052 9.054 9.054 0 0 1 5.257-1.422 9.875 9.875 0 0 1 4.717.983 3 3 0 0 1 1.814 2.706 4.367 4.367 0 0 1 -.212 1.331h-4.019l.03-.3a1.23 1.23 0 0 0 -.65-1.134 3.593 3.593 0 0 0 -1.8-.378 5.049 5.049 0 0 0 -2.132.378 1.176 1.176 0 0 0 -.8 1.073 1.13 1.13 0 0 0 .786 1.028 12.8 12.8 0 0 0 2.419.726 22.932 22.932 0 0 1 2.857.814 5.111 5.111 0 0 1 1.95 1.285 3.225 3.225 0 0 1 .817 2.315 4.847 4.847 0 0 1 -2.177 4.429 10.129 10.129 0 0 1 -5.5 1.371zm14.515 0a4.05 4.05 0 0 1 -2.933-.877 3.108 3.108 0 0 1 -.882-2.293 24.67 24.67 0 0 1 .393-2.782l1.207-6.925h-1.9l.6-3.387h1.905l1.542-4.475h3.417l-.816 4.475h2.752l-.6 3.387h-2.753l-1.301 7.377a10.145 10.145 0 0 0 -.181 1.24.78.78 0 0 0 .287.65 1.318 1.318 0 0 0 .832.227h1.451l-.514 2.9a9.938 9.938 0 0 1 -1.225.333 6.231 6.231 0 0 1 -1.285.15zm13.154 0a7.8 7.8 0 0 1 -3.674-.847 6.591 6.591 0 0 1 -2.574-2.353 6.475 6.475 0 0 1 -.983-3.417 14.633 14.633 0 0 1 .212-2.631 8.982 8.982 0 0 1 2.782-5.473 8.831 8.831 0 0 1 6.018-1.905 7.962 7.962 0 0 1 3.719.847 6.564 6.564 0 0 1 2.585 2.359 6.475 6.475 0 0 1 .983 3.417 14.633 14.633 0 0 1 -.212 2.631 8.943 8.943 0 0 1 -2.797 5.472 8.939 8.939 0 0 1 -6.063 1.9zm.3-3.387a4.218 4.218 0 0 0 3.19-1.179 6.22 6.22 0 0 0 1.436-3.629 11.986 11.986 0 0 0 .121-1.754 3.273 3.273 0 0 0 -.953-2.419 3.558 3.558 0 0 0 -2.555-.877 4.218 4.218 0 0 0 -3.19 1.179 6.22 6.22 0 0 0 -1.436 3.629 11.984 11.984 0 0 0 -.121 1.754 3.273 3.273 0 0 0 .953 2.419 3.558 3.558 0 0 0 2.554.882z" fill="#0c2134" transform="translate(8.912 19.521)"/><path d="m8.063 21.471a11.141 11.141 0 0 1 -5.172-1.059 6.146 6.146 0 0 1 -2.891-3.178l4.187-1.8c.59 1.532 1.946 2.309 4.032 2.309a6.522 6.522 0 0 0 3.911-1.143 4.938 4.938 0 0 0 1.982-3.178h4.355a9.338 9.338 0 0 1 -1.933 4.462 9.2 9.2 0 0 1 -3.676 2.692 12.706 12.706 0 0 1 -4.795.895zm11.337-13.398h-4.5a4.766 4.766 0 0 0 .089-.906 3.1 3.1 0 0 0 -1.105-2.567 4.613 4.613 0 0 0 -2.944-.877 6.121 6.121 0 0 0 -4.2 1.463l-4-1.842a11.035 11.035 0 0 1 1-.954 10.032 10.032 0 0 1 3.252-1.771 12.936 12.936 0 0 1 4.097-.619 10.533 10.533 0 0 1 6.14 1.633 5.484 5.484 0 0 1 2.327 4.777 10.976 10.976 0 0 1 -.156 1.662z" fill="#0c2134" transform="translate(8.22 .757)"/><path d="m.852-2.288 13.372-4.771-11.658-4.771.672-3.83 14.783 6.585-.773 4.267-17.068 6.62z" fill="#17ca6a" transform="translate(-.18 17.744)"/><path d="m.852-3.209 13.372-4.771 3.181 1.305-.157.946-17.068 6.619z" fill="#9ce6c5" transform="translate(-.18 18.665)"/></svg>