<svg xmlns="http://www.w3.org/2000/svg" width="17" height="18" viewBox="0 0 17 18"><g transform="translate(-1774 -3267)"><path d="M97.657,88.088h0a1.555,1.555,0,0,1-.766-.2,1.721,1.721,0,0,1-.852-1.5V73.692a1.719,1.719,0,0,1,.852-1.5h0a1.536,1.536,0,0,1,1.565.02L109.3,78.7h0a1.575,1.575,0,0,1,0,2.669L98.454,87.863h0a1.56,1.56,0,0,1-.8.224Z" transform="translate(1680.96 3196.015)" fill="#0c2134"/><rect width="17" height="18" transform="translate(1774 3267)" fill="rgba(255,255,255,0)" opacity="0.399"/></g></svg>